<?xml version="1.0" encoding="utf-8"?>
<!-- Generator: Adobe Illustrator 25.0.0, SVG Export Plug-In . SVG Version: 6.00 Build 0)  -->
<svg version="1.1" id="Livello_1" xmlns="http://www.w3.org/2000/svg" xmlns:xlink="http://www.w3.org/1999/xlink" x="0px" y="0px"
	 viewBox="0 0 527.9 312.6" style="enable-background:new 0 0 527.9 312.6;" xml:space="preserve">
<style type="text/css">
	.st0{fill:#848484;stroke:#000000;stroke-miterlimit:10;}
	.st1{fill:#E2E2E2;stroke:#777777;stroke-miterlimit:10;}
	.st2{fill:#FFFFFF;stroke:#777777;stroke-miterlimit:10;}
	.st3{fill:none;stroke:#777777;stroke-width:5.1001;stroke-linecap:round;stroke-linejoin:round;stroke-miterlimit:10;}
</style>
<path class="st0" d="M230,17.4c0.2,1.4,1.2,2.3,3,2.6c1.7,0.3,6.9,0.6,15.5,0.9h0.3c21.4,0.9,36.7,3.7,46,8.4
	c7.2,3.5,10.8,7.7,10.8,12.5c0,1.5-0.5,3-1.4,4.2c-2.6,1.9-4.6,1.4-6.3-1.4c-2.1-3.9-6.8-7.6-13.9-11.1c-0.5-0.1-1-0.4-1.4-0.7
	c-11.1-5.1-24.9-8.1-41.1-9.1L228.6,23l-3.2,5.2c-0.2,0.5-1.5,2.7-3.8,6.6c-9.1,15.3-16.6,28-22.7,38
	c-33.9,55.5-50.2,84.4-48.8,86.4c0.5,0.2,9.3-1.2,26.5-4.2c17.4-3,30.3-4.5,38.7-4.5c10,0,15.3,1.3,16,3.8v2.1
	c-0.2,1.6-1.6,2.3-4.2,2.1h-0.7c-13.9-1.4-33-1.3-57.1,0.3c-2.6,0.2-4.5,0.5-5.9,0.7c-8.8,1.4-14.1,3.1-15.7,5.2
	c-1.2,1.4-2.8,4.5-4.9,9.4c-18.1,43.7-22.8,70.2-13.9,79.5c0.9,0.7,1.7,1.3,2.4,1.7c5.8,2.8,16.3,1.7,31.4-3.1
	c11.8-4,35.5-15.8,71.1-35.5c25.8-14.2,41.7-21.3,47.7-21.3c1.6,0.2,3.8,1.7,6.6,4.5c2.8,3,4.1,5.8,3.8,8.4
	c-0.7,2.6-1.7,4.1-3.1,4.5c-1.9,0.2-3.3-0.8-4.2-3.1c-0.2-0.2-0.3-0.4-0.3-0.7c-1.4-3-2.9-4.8-4.5-5.2c-6.3-1.6-15.7,0.6-28.2,6.6
	c-6.3,3.2-14.9,7.9-25.8,13.9c-33,18.3-56.1,29.3-69.3,32.8c-10.5,2.3-18,2.9-22.7,1.7c-16.3-4.9-15.6-30.9,2.1-78.1l6.3-17.1
	c-1.4-1.4-12.3,1.5-32.8,8.7c-4.6,1.9-8.3,3.4-11.1,4.5c-1.2,0.5-2.3,0.9-3.3,1.4c-0.9,0.4-1.8,0.7-2.8,0.9
	c-0.6,0.1-1.3,0.2-1.9,0.3c-0.5,0.1-0.7,0.1-0.7-0.2c-0.2-0.8-0.1-1.7,0.3-2.4c2.6-2.1,13.9-5.8,34.1-11.2c1.6-0.6,3.2-1.1,4.9-1.4
	c0.7-0.2,1.4-0.4,2.1-0.5l2.1-0.3c0.7-0.1,1.3-0.3,1.9-0.5c0.6-0.2,1.1-0.4,1.7-0.5c0.6-0.1,1.1-0.2,1.6-0.3l1.4-0.3
	c0.3-0.1,0.7-0.2,1-0.2c0.4,0,0.7-0.2,1-0.3h0.3c1.4-0.7,3.2-3.8,5.6-9.4c9.5-21.4,19.2-40.8,28.9-58.2c2.3-4,10-16.8,23-38.7
	c1.4-2.1,2.7-4.3,4-6.5s2.5-4.3,3.7-6.3s2.3-3.8,3.3-5.6c1-1.7,2-3.2,2.8-4.6c0.8-1.3,1.5-2.4,2.1-3.5c0.6-1,1.1-1.9,1.6-2.6l0.4-1
	c0.2-0.5-0.5-0.8-2.1-1c-3-0.2-11.7,0.4-26.1,1.7c-30.9,2.8-57.9,8.4-80.9,16.7C90.2,49,78.1,55.8,72.1,62.5
	c-1.2,1.6-1.7,2.9-1.7,3.8c0,2.3-1.2,3.5-3.5,3.5c-1-0.2-2-0.7-2.8-1.4c-2.3-3-1.3-6.9,3.2-11.5c6-5.3,18.1-10.9,36.2-16.7
	c27.9-9.1,59-15.1,93.4-18.1c14.9-1.2,23.1-2.4,24.7-3.8c0.2-0.4,0.4-0.7,0.7-1c1.6-1.6,3-2.6,4.2-2.8
	C228.1,14.8,229.4,15.9,230,17.4z"/>
<path class="st0" d="M423.5,37.9c7.5,8.4,12.8,18.4,15.7,29.3c6.3,24.4,1.9,51.1-13.2,80.1c-10.2,19.4-24.2,36.6-41.1,50.5
	c-19.3,15.6-36.4,22.9-51.2,22c-4.9-0.2-8.5-1.6-10.8-4.2l-1-1c-2.6-2.8-3.8-5.6-3.8-8.4v-3.5c0.9-12.5,8.5-25.7,22.7-39.4
	c9.5-9.1,19.3-15.3,29.3-18.8c9.8-3,16.4-3.2,19.8-0.7c1.6,1.9,0.4,3.3-3.8,4.2c-1.6,0.2-3.2,0.4-4.9,0.3
	c-11.9,0-24.6,5.8-38.3,17.5c-4.4,3.9-8.3,8.2-11.8,12.9c-10.7,15.6-13,27.1-7,34.5c2.3,2.6,5,3.8,8,3.8h4.2
	c16.3-0.2,34.4-10.8,54.4-31.7c23.9-25.1,38.2-52.6,42.8-82.6c4-27.2-1.5-48.3-16.4-63.4c-10.2-10-24-15-41.5-15
	c-26.3,0-52.2,10.6-77.7,31.7c-24.6,20.9-40.8,45.1-48.4,72.5c-3.5,13.2-3.9,24.3-1.4,33.1c0.2,0.7,0.4,1.4,0.7,2.1
	c5.8,13.5,17.3,18.2,34.5,14.3c1.3-0.2,2.6-0.6,3.8-1c10.2-3.3,20.7-9.9,31.4-19.8c7-6.5,11-9.9,12.2-10.1
	c1.6-0.5,9.9-15.7,24.7-45.6c17.2-34.6,27.2-53.1,30-55.4c0.9-0.8,2-1.3,3.1-1.4c1.9,0.5,3,1.4,3.5,2.8c0.5,2.8-1.5,7.7-5.9,14.6
	c-0.5,1.2-1.2,2.2-2.1,3.2c-6.7,6.9-33.9,57.1-81.5,150.5c-6.3,12.3-12.4,24.5-18.5,36.6c-6.3,12.5-10.3,18.9-12.2,19.2
	c-0.8-0.5-1.4-1.3-1.7-2.1c-0.2-1.6,0.3-3.3,1.7-4.9c1.4-1.6,8-14.3,19.8-38c12.5-25.1,20.8-41.2,24.7-48.4l7-12.9l-5.6,4.5
	c-13.9,11.2-27.4,16.3-40.4,15.3c-14.6-1.2-24.6-6.9-30-17.1c-2.4-6.1-3.6-12.6-3.5-19.2c0.2-25.6,11-50.6,32.4-75.3
	c15.1-17.2,32.4-30.6,51.9-40.1c16-7.7,31.4-11.8,46-12.5c0.7,0,1.4-0.2,2-0.3h2.1C397.2,20.2,412.3,26.1,423.5,37.9z"/>
<g>
	<g>
		<polygon class="st1" points="387,261.3 280.3,276.9 265.6,301.1 522.9,292 		"/>
		<polygon class="st1" points="142.5,261.3 6.7,292 264,301.1 249.2,276.9 		"/>
	</g>
	<path class="st2" d="M270.9,272.6c12.4-32,46.5-78.2,139.6-69.2c10.7,0.9,22.5,3.3,31.9,5.7l19.1,20.1
		c-18.6-4.3-63.2-12.3-106.8-2.2c27.8-2.3,66.3-0.7,116.4,12.3l6.1,6.4c-47.5-13-85.1-15.8-113.1-14.4c74.3-0.5,123,24.9,123,24.9
		l34.2,35.8c0,0-90.9-15.7-173.2-18.2c-54-1.6-84.1,27.3-84.1,27.3S264.6,287.5,270.9,272.6z"/>
	<path class="st2" d="M257,272.6c-12.4-32-46.5-78.2-139.6-69.2c-10.7,0.9-22.5,3.3-31.9,5.7l-19.1,20.1
		c18.6-4.3,63.2-12.3,106.8-2.2c-27.8-2.3-66.3-0.7-116.4,12.3l-6.1,6.4c47.5-13,85.1-15.8,113.1-14.4c-74.3-0.5-123,24.9-123,24.9
		L6.7,292c0,0,90.9-15.7,173.2-18.2c54-1.6,84.1,27.3,84.1,27.3S263.3,287.5,257,272.6z"/>
	<line class="st3" x1="0" y1="297.9" x2="527.9" y2="297.9"/>
</g>
</svg>
